# xmcd
#
# Track frame offsets:
#	150
#	10842
#	25577
#	40663
#	60594
#	73221
#	83967
#	95549
#	108134
#	121581
#	134055
#	148683
#	170834
#	181267
#	194116
#	204385
#	215193
#
# Disc length: 3051 seconds
#
# Revision: 0
# Processed by: cddbd v1.5.2PL0 Copyright (c) Steve Scherf et al.
# Submitted via: EasyCDDAExtractor 10.2.0.1
#
DISCID=fa0be911
DTITLE=John Mayall and the Bluesbreakers - John Mayall Plays John Mayall (Klooks
DTITLE=Kleek 1965)
DYEAR=2006
DGENRE=Blues
TTITLE0=Crawling Up A Hill
TTITLE1=I Wanna Teach You everything
TTITLE2=When I'm Gone
TTITLE3=I Need Your Love
TTITLE4=The Hoot Owl
TTITLE5=R and B Time: Night Train - Lucille
TTITLE6=Crocodile Walk
TTITLE7=What's The Matter with You
TTITLE8=Doreen
TTITLE9=Runaway
TTITLE10=Heartache
TTITLE11=Chicago Line
TTITLE12=Crawling Up A Hill (A side single)
TTITLE13=Mr. James (B side single)
TTITLE14=Cocodile Walk (A side single)
TTITLE15=Blues City Shakedown (B side single)
TTITLE16=My Baby Is Sweeter
EXTD=
EXTT0=
EXTT1=
EXTT2=
EXTT3=
EXTT4=
EXTT5=
EXTT6=
EXTT7=
EXTT8=
EXTT9=
EXTT10=
EXTT11=
EXTT12=
EXTT13=
EXTT14=
EXTT15=
EXTT16=
PLAYORDER=
